<svg width="64" height="64" viewBox="0 0 64 64" fill="none" xmlns="http://www.w3.org/2000/svg">
<path d="M34.5 7C34.3674 7.00001 34.2402 7.0527 34.1464 7.14646C34.0527 7.24023 34 7.3674 34 7.5V11.5C34 11.6326 34.0527 11.7598 34.1464 11.8535C34.2402 11.9473 34.3674 12 34.5 12H38.5C38.6326 12 38.7597 11.9473 38.8535 11.8535C38.9473 11.7598 39 11.6326 39 11.5V7.5C39 7.3674 38.9473 7.24023 38.8535 7.14646C38.7597 7.0527 38.6326 7.00001 38.5 7H34.5ZM35 8H38V11H35V8ZM34.5 13C34.3674 13 34.2402 13.0527 34.1464 13.1465C34.0527 13.2402 34 13.3674 34 13.5V17.5C34 17.6326 34.0527 17.7598 34.1464 17.8535C34.2402 17.9473 34.3674 18 34.5 18H38.5C38.6326 18 38.7597 17.9473 38.8535 17.8535C38.9473 17.7598 39 17.6326 39 17.5V13.5C39 13.3674 38.9473 13.2402 38.8535 13.1465C38.7597 13.0527 38.6326 13 38.5 13H34.5ZM50.5 13C50.3674 13 50.2402 13.0527 50.1464 13.1465C50.0527 13.2402 50 13.3674 50 13.5V17.5C50 17.6326 50.0527 17.7598 50.1464 17.8535C50.2402 17.9473 50.3674 18 50.5 18H54.5C54.6326 18 54.7597 17.9473 54.8535 17.8535C54.9473 17.7598 55 17.6326 55 17.5V13.5C55 13.3674 54.9473 13.2402 54.8535 13.1465C54.7597 13.0527 54.6326 13 54.5 13H50.5ZM35 14H38V17H35V14ZM51 14H54V17H51V14ZM18.5 19C18.3674 19 18.2402 19.0527 18.1464 19.1465C18.0527 19.2402 18 19.3674 18 19.5V23.5C18 23.6326 18.0527 23.7598 18.1464 23.8535C18.2402 23.9473 18.3674 24 18.5 24H22.5C22.6326 24 22.7597 23.9473 22.8535 23.8535C22.9473 23.7598 23 23.6326 23 23.5V19.5C23 19.3674 22.9473 19.2402 22.8535 19.1465C22.7597 19.0527 22.6326 19 22.5 19H18.5ZM34.5 19C34.3674 19 34.2402 19.0527 34.1464 19.1465C34.0527 19.2402 34 19.3674 34 19.5V23.5C34 23.6326 34.0527 23.7598 34.1464 23.8535C34.2402 23.9473 34.3674 24 34.5 24H38.5C38.6326 24 38.7597 23.9473 38.8535 23.8535C38.9473 23.7598 39 23.6326 39 23.5V19.5C39 19.3674 38.9473 19.2402 38.8535 19.1465C38.7597 19.0527 38.6326 19 38.5 19H34.5ZM50.5 19C50.3674 19 50.2402 19.0527 50.1464 19.1465C50.0527 19.2402 50 19.3674 50 19.5V23.5C50 23.6326 50.0527 23.7598 50.1464 23.8535C50.2402 23.9473 50.3674 24 50.5 24H54.5C54.6326 24 54.7597 23.9473 54.8535 23.8535C54.9473 23.7598 55 23.6326 55 23.5V19.5C55 19.3674 54.9473 19.2402 54.8535 19.1465C54.7597 19.0527 54.6326 19 54.5 19H50.5ZM19 20H22V23H19V20ZM35 20H38V23H35V20ZM51 20H54V23H51V20ZM18.5 25C18.3674 25 18.2402 25.0527 18.1464 25.1465C18.0527 25.2402 18 25.3674 18 25.5V29.5C18 29.6326 18.0527 29.7598 18.1464 29.8535C18.2402 29.9473 18.3674 30 18.5 30H22.5C22.6326 30 22.7597 29.9473 22.8535 29.8535C22.9473 29.7598 23 29.6326 23 29.5V25.5C23 25.3674 22.9473 25.2402 22.8535 25.1465C22.7597 25.0527 22.6326 25 22.5 25H18.5ZM34.5 25C34.3674 25 34.2402 25.0527 34.1464 25.1465C34.0527 25.2402 34 25.3674 34 25.5V29.5C34 29.6326 34.0527 29.7598 34.1464 29.8535C34.2402 29.9473 34.3674 30 34.5 30H38.5C38.6326 30 38.7597 29.9473 38.8535 29.8535C38.9473 29.7598 39 29.6326 39 29.5V25.5C39 25.3674 38.9473 25.2402 38.8535 25.1465C38.7597 25.0527 38.6326 25 38.5 25H34.5ZM42.5 25C42.3674 25 42.2402 25.0527 42.1464 25.1465C42.0527 25.2402 42 25.3674 42 25.5V29.5C42 29.6326 42.0527 29.7598 42.1464 29.8535C42.2402 29.9473 42.3674 30 42.5 30H46.5C46.6326 30 46.7597 29.9473 46.8535 29.8535C46.9473 29.7598 47 29.6326 47 29.5V25.5C47 25.3674 46.9473 25.2402 46.8535 25.1465C46.7597 25.0527 46.6326 25 46.5 25H42.5ZM50.5 25C50.3674 25 50.2402 25.0527 50.1464 25.1465C50.0527 25.2402 50 25.3674 50 25.5V29.5C50 29.6326 50.0527 29.7598 50.1464 29.8535C50.2402 29.9473 50.3674 30 50.5 30H54.5C54.6326 30 54.7597 29.9473 54.8535 29.8535C54.9473 29.7598 55 29.6326 55 29.5V25.5C55 25.3674 54.9473 25.2402 54.8535 25.1465C54.7597 25.0527 54.6326 25 54.5 25H50.5ZM19 26H22V29H19V26ZM35 26H38V29H35V26ZM43 26H46V29H43V26ZM51 26H54V29H51V26ZM10.5 31C10.3674 31 10.2402 31.0527 10.1464 31.1465C10.0527 31.2402 9.99999 31.3674 9.99997 31.5V35.5C9.99999 35.6326 10.0527 35.7598 10.1464 35.8535C10.2402 35.9473 10.3674 36 10.5 36H14.5C14.6326 36 14.7597 35.9473 14.8535 35.8535C14.9473 35.7598 15 35.6326 15 35.5V31.5C15 31.3674 14.9473 31.2402 14.8535 31.1465C14.7597 31.0527 14.6326 31 14.5 31H10.5ZM18.5 31C18.3674 31 18.2402 31.0527 18.1464 31.1465C18.0527 31.2402 18 31.3674 18 31.5V35.5C18 35.6326 18.0527 35.7598 18.1464 35.8535C18.2402 35.9473 18.3674 36 18.5 36H22.5C22.6326 36 22.7597 35.9473 22.8535 35.8535C22.9473 35.7598 23 35.6326 23 35.5V31.5C23 31.3674 22.9473 31.2402 22.8535 31.1465C22.7597 31.0527 22.6326 31 22.5 31H18.5ZM34.5 31C34.3674 31 34.2402 31.0527 34.1464 31.1465C34.0527 31.2402 34 31.3674 34 31.5V35.5C34 35.6326 34.0527 35.7598 34.1464 35.8535C34.2402 35.9473 34.3674 36 34.5 36H38.5C38.6326 36 38.7597 35.9473 38.8535 35.8535C38.9473 35.7598 39 35.6326 39 35.5V31.5C39 31.3674 38.9473 31.2402 38.8535 31.1465C38.7597 31.0527 38.6326 31 38.5 31H34.5ZM42.5 31C42.3674 31 42.2402 31.0527 42.1464 31.1465C42.0527 31.2402 42 31.3674 42 31.5V35.5C42 35.6326 42.0527 35.7598 42.1464 35.8535C42.2402 35.9473 42.3674 36 42.5 36H46.5C46.6326 36 46.7597 35.9473 46.8535 35.8535C46.9473 35.7598 47 35.6326 47 35.5V31.5C47 31.3674 46.9473 31.2402 46.8535 31.1465C46.7597 31.0527 46.6326 31 46.5 31H42.5ZM50.5 31C50.3674 31 50.2402 31.0527 50.1464 31.1465C50.0527 31.2402 50 31.3674 50 31.5V35.5C50 35.6326 50.0527 35.7598 50.1464 35.8535C50.2402 35.9473 50.3674 36 50.5 36H54.5C54.6326 36 54.7597 35.9473 54.8535 35.8535C54.9473 35.7598 55 35.6326 55 35.5V31.5C55 31.3674 54.9473 31.2402 54.8535 31.1465C54.7597 31.0527 54.6326 31 54.5 31H50.5ZM11 32H14V35H11V32ZM19 32H22V35H19V32ZM35 32H38V35H35V32ZM43 32H46V35H43V32ZM51 32H54V35H51V32ZM10.5 37C10.3674 37 10.2402 37.0527 10.1464 37.1465C10.0527 37.2402 9.99999 37.3674 9.99997 37.5V41.5C9.99999 41.6326 10.0527 41.7598 10.1464 41.8535C10.2402 41.9473 10.3674 42 10.5 42H14.5C14.6326 42 14.7597 41.9473 14.8535 41.8535C14.9473 41.7598 15 41.6326 15 41.5V37.5C15 37.3674 14.9473 37.2402 14.8535 37.1465C14.7597 37.0527 14.6326 37 14.5 37H10.5ZM18.5 37C18.3674 37 18.2402 37.0527 18.1464 37.1465C18.0527 37.2402 18 37.3674 18 37.5V41.5C18 41.6326 18.0527 41.7598 18.1464 41.8535C18.2402 41.9473 18.3674 42 18.5 42H22.5C22.6326 42 22.7597 41.9473 22.8535 41.8535C22.9473 41.7598 23 41.6326 23 41.5V37.5C23 37.3674 22.9473 37.2402 22.8535 37.1465C22.7597 37.0527 22.6326 37 22.5 37H18.5ZM26.5 37C26.3674 37 26.2402 37.0527 26.1464 37.1465C26.0527 37.2402 26 37.3674 26 37.5V41.5C26 41.6326 26.0527 41.7598 26.1464 41.8535C26.2402 41.9473 26.3674 42 26.5 42H30.5C30.6326 42 30.7597 41.9473 30.8535 41.8535C30.9473 41.7598 31 41.6326 31 41.5V37.5C31 37.3674 30.9473 37.2402 30.8535 37.1465C30.7597 37.0527 30.6326 37 30.5 37H26.5ZM34.5 37C34.3674 37 34.2402 37.0527 34.1464 37.1465C34.0527 37.2402 34 37.3674 34 37.5V41.5C34 41.6326 34.0527 41.7598 34.1464 41.8535C34.2402 41.9473 34.3674 42 34.5 42H38.5C38.6326 42 38.7597 41.9473 38.8535 41.8535C38.9473 41.7598 39 41.6326 39 41.5V37.5C39 37.3674 38.9473 37.2402 38.8535 37.1465C38.7597 37.0527 38.6326 37 38.5 37H34.5ZM42.5 37C42.3674 37 42.2402 37.0527 42.1464 37.1465C42.0527 37.2402 42 37.3674 42 37.5V41.5C42 41.6326 42.0527 41.7598 42.1464 41.8535C42.2402 41.9473 42.3674 42 42.5 42H46.5C46.6326 42 46.7597 41.9473 46.8535 41.8535C46.9473 41.7598 47 41.6326 47 41.5V37.5C47 37.3674 46.9473 37.2402 46.8535 37.1465C46.7597 37.0527 46.6326 37 46.5 37H42.5ZM50.5 37C50.3674 37 50.2402 37.0527 50.1464 37.1465C50.0527 37.2402 50 37.3674 50 37.5V41.5C50 41.6326 50.0527 41.7598 50.1464 41.8535C50.2402 41.9473 50.3674 42 50.5 42H54.5C54.6326 42 54.7597 41.9473 54.8535 41.8535C54.9473 41.7598 55 41.6326 55 41.5V37.5C55 37.3674 54.9473 37.2402 54.8535 37.1465C54.7597 37.0527 54.6326 37 54.5 37H50.5ZM11 38H14V41H11V38ZM19 38H22V41H19V38ZM27 38H30V41H27V38ZM35 38H38V41H35V38ZM43 38H46V41H43V38ZM51 38H54V41H51V38ZM10.5 43C10.3674 43 10.2402 43.0527 10.1464 43.1465C10.0527 43.2402 9.99999 43.3674 9.99997 43.5V47.5C9.99999 47.6326 10.0527 47.7598 10.1464 47.8535C10.2402 47.9473 10.3674 48 10.5 48H14.5C14.6326 48 14.7597 47.9473 14.8535 47.8535C14.9473 47.7598 15 47.6326 15 47.5V43.5C15 43.3674 14.9473 43.2402 14.8535 43.1465C14.7597 43.0527 14.6326 43 14.5 43H10.5ZM18.5 43C18.3674 43 18.2402 43.0527 18.1464 43.1465C18.0527 43.2402 18 43.3674 18 43.5V47.5C18 47.6326 18.0527 47.7598 18.1464 47.8535C18.2402 47.9473 18.3674 48 18.5 48H22.5C22.6326 48 22.7597 47.9473 22.8535 47.8535C22.9473 47.7598 23 47.6326 23 47.5V43.5C23 43.3674 22.9473 43.2402 22.8535 43.1465C22.7597 43.0527 22.6326 43 22.5 43H18.5ZM26.5 43C26.3674 43 26.2402 43.0527 26.1464 43.1465C26.0527 43.2402 26 43.3674 26 43.5V47.5C26 47.6326 26.0527 47.7598 26.1464 47.8535C26.2402 47.9473 26.3674 48 26.5 48H30.5C30.6326 48 30.7597 47.9473 30.8535 47.8535C30.9473 47.7598 31 47.6326 31 47.5V43.5C31 43.3674 30.9473 43.2402 30.8535 43.1465C30.7597 43.0527 30.6326 43 30.5 43H26.5ZM34.5 43C34.3674 43 34.2402 43.0527 34.1464 43.1465C34.0527 43.2402 34 43.3674 34 43.5V47.5C34 47.6326 34.0527 47.7598 34.1464 47.8535C34.2402 47.9473 34.3674 48 34.5 48H38.5C38.6326 48 38.7597 47.9473 38.8535 47.8535C38.9473 47.7598 39 47.6326 39 47.5V43.5C39 43.3674 38.9473 43.2402 38.8535 43.1465C38.7597 43.0527 38.6326 43 38.5 43H34.5ZM42.5 43C42.3674 43 42.2402 43.0527 42.1464 43.1465C42.0527 43.2402 42 43.3674 42 43.5V47.5C42 47.6326 42.0527 47.7598 42.1464 47.8535C42.2402 47.9473 42.3674 48 42.5 48H46.5C46.6326 48 46.7597 47.9473 46.8535 47.8535C46.9473 47.7598 47 47.6326 47 47.5V43.5C47 43.3674 46.9473 43.2402 46.8535 43.1465C46.7597 43.0527 46.6326 43 46.5 43H42.5ZM50.5 43C50.3674 43 50.2402 43.0527 50.1464 43.1465C50.0527 43.2402 50 43.3674 50 43.5V47.5C50 47.6326 50.0527 47.7598 50.1464 47.8535C50.2402 47.9473 50.3674 48 50.5 48H54.5C54.6326 48 54.7597 47.9473 54.8535 47.8535C54.9473 47.7598 55 47.6326 55 47.5V43.5C55 43.3674 54.9473 43.2402 54.8535 43.1465C54.7597 43.0527 54.6326 43 54.5 43H50.5ZM11 44H14V47H11V44ZM19 44H22V47H19V44ZM27 44H30V47H27V44ZM35 44H38V47H35V44ZM43 44H46V47H43V44ZM51 44H54V47H51V44ZM10.5 49C10.3674 49 10.2402 49.0527 10.1464 49.1465C10.0527 49.2402 9.99999 49.3674 9.99997 49.5V53.5C9.99999 53.6326 10.0527 53.7598 10.1464 53.8535C10.2402 53.9473 10.3674 54 10.5 54H14.5C14.6326 54 14.7597 53.9473 14.8535 53.8535C14.9473 53.7598 15 53.6326 15 53.5V49.5C15 49.3674 14.9473 49.2402 14.8535 49.1465C14.7597 49.0527 14.6326 49 14.5 49H10.5ZM18.5 49C18.3674 49 18.2402 49.0527 18.1464 49.1465C18.0527 49.2402 18 49.3674 18 49.5V53.5C18 53.6326 18.0527 53.7598 18.1464 53.8535C18.2402 53.9473 18.3674 54 18.5 54H22.5C22.6326 54 22.7597 53.9473 22.8535 53.8535C22.9473 53.7598 23 53.6326 23 53.5V49.5C23 49.3674 22.9473 49.2402 22.8535 49.1465C22.7597 49.0527 22.6326 49 22.5 49H18.5ZM26.5 49C26.3674 49 26.2402 49.0527 26.1464 49.1465C26.0527 49.2402 26 49.3674 26 49.5V53.5C26 53.6326 26.0527 53.7598 26.1464 53.8535C26.2402 53.9473 26.3674 54 26.5 54H30.5C30.6326 54 30.7597 53.9473 30.8535 53.8535C30.9473 53.7598 31 53.6326 31 53.5V49.5C31 49.3674 30.9473 49.2402 30.8535 49.1465C30.7597 49.0527 30.6326 49 30.5 49H26.5ZM34.5 49C34.3674 49 34.2402 49.0527 34.1464 49.1465C34.0527 49.2402 34 49.3674 34 49.5V53.5C34 53.6326 34.0527 53.7598 34.1464 53.8535C34.2402 53.9473 34.3674 54 34.5 54H38.5C38.6326 54 38.7597 53.9473 38.8535 53.8535C38.9473 53.7598 39 53.6326 39 53.5V49.5C39 49.3674 38.9473 49.2402 38.8535 49.1465C38.7597 49.0527 38.6326 49 38.5 49H34.5ZM42.5 49C42.3674 49 42.2402 49.0527 42.1464 49.1465C42.0527 49.2402 42 49.3674 42 49.5V53.5C42 53.6326 42.0527 53.7598 42.1464 53.8535C42.2402 53.9473 42.3674 54 42.5 54H46.5C46.6326 54 46.7597 53.9473 46.8535 53.8535C46.9473 53.7598 47 53.6326 47 53.5V49.5C47 49.3674 46.9473 49.2402 46.8535 49.1465C46.7597 49.0527 46.6326 49 46.5 49H42.5ZM50.5 49C50.3674 49 50.2402 49.0527 50.1464 49.1465C50.0527 49.2402 50 49.3674 50 49.5V53.5C50 53.6326 50.0527 53.7598 50.1464 53.8535C50.2402 53.9473 50.3674 54 50.5 54H54.5C54.6326 54 54.7597 53.9473 54.8535 53.8535C54.9473 53.7598 55 53.6326 55 53.5V49.5C55 49.3674 54.9473 49.2402 54.8535 49.1465C54.7597 49.0527 54.6326 49 54.5 49H50.5ZM11 50H14V53H11V50ZM19 50H22V53H19V50ZM27 50H30V53H27V50ZM35 50H38V53H35V50ZM43 50H46V53H43V50ZM51 50H54V53H51V50ZM8.457 56C8.3244 56.0067 8.19989 56.0659 8.11089 56.1644C8.02188 56.2629 7.97566 56.3928 7.9824 56.5254C7.98913 56.658 8.04827 56.7825 8.1468 56.8715C8.24533 56.9605 8.37518 57.0067 8.50779 57H56.4922C56.5584 57.0009 56.6242 56.9887 56.6857 56.964C56.7472 56.9393 56.8031 56.9026 56.8503 56.8561C56.8975 56.8096 56.935 56.7541 56.9605 56.693C56.9861 56.6319 56.9993 56.5663 56.9993 56.5C56.9993 56.4337 56.9861 56.3681 56.9605 56.307C56.935 56.2459 56.8975 56.1904 56.8503 56.1439C56.8031 56.0974 56.7472 56.0607 56.6857 56.036C56.6242 56.0113 56.5584 55.9991 56.4922 56H8.50779C8.49087 55.9991 8.47392 55.9991 8.457 56Z" fill="black"/>
</svg>
