<svg width="64" height="64" viewBox="0 0 64 64" fill="none" xmlns="http://www.w3.org/2000/svg">
<path d="M56.9958 25.3308H7V56.9948H56.9958V25.3308Z" stroke="black" stroke-width="2" stroke-linejoin="round"/>
<path d="M7 31.9969H56.9958" stroke="black" stroke-width="2" stroke-linejoin="round"/>
<path d="M10.3331 28.6639H11.9996" stroke="black" stroke-width="2" stroke-linejoin="round"/>
<path d="M13.6661 28.6639H15.3326" stroke="black" stroke-width="2" stroke-linejoin="round"/>
<path d="M16.9991 28.6639H18.6657" stroke="black" stroke-width="2" stroke-linejoin="round"/>
<path d="M20.3322 28.6639H21.9987" stroke="black" stroke-width="2" stroke-linejoin="round"/>
<path d="M41.997 28.6639H55.3292" stroke="black" stroke-width="2" stroke-linejoin="round"/>
<path d="M11.9996 21.9978C11.5576 21.9978 11.1337 21.8223 10.8212 21.5097C10.5086 21.1972 10.3331 20.7733 10.3331 20.3313C10.3331 19.8893 10.5086 19.4654 10.8212 19.1529C11.1337 18.8404 11.5576 18.6648 11.9996 18.6648M55.7292 25.3309C56.7088 23.8121 57.107 21.9907 56.8505 20.2017C56.594 18.4126 55.7 16.7765 54.3331 15.5941C52.9663 14.4118 51.2184 13.7628 49.4111 13.7667C47.6038 13.7705 45.8587 14.4269 44.4968 15.6151C44.4007 14.4379 43.9936 13.3074 43.3172 12.3393C42.6407 11.3711 41.7192 10.6001 40.6469 10.1051C39.5746 9.61002 38.39 9.40875 37.2144 9.52186C36.0388 9.63498 34.9143 10.0584 33.956 10.7488C33.1974 9.59531 32.1641 8.6484 30.9489 7.99315C29.7337 7.33791 28.3747 6.99487 26.9941 6.99487C25.6135 6.99487 24.2546 7.33791 23.0394 7.99315C21.8242 8.6484 20.7908 9.59531 20.0322 10.7488C19.2114 10.416 18.3255 10.2745 17.4418 10.3351C16.5581 10.3957 15.6999 10.6568 14.9321 11.0985C14.1643 11.5402 13.5072 12.1509 13.0107 12.8844C12.5141 13.6179 12.1911 14.4548 12.0662 15.3317H11.9996C10.6736 15.3317 9.40194 15.8585 8.46434 16.7961C7.52674 17.7337 7 19.0054 7 20.3313C7 21.6573 7.52674 22.929 8.46434 23.8666C9.40194 24.8042 10.6736 25.3309 11.9996 25.3309H55.7292ZM49.4964 16.9983C50.6014 16.9983 51.6611 17.4372 52.4424 18.2186C53.2238 18.9999 53.6627 20.0596 53.6627 21.1646L49.4964 16.9983Z" stroke="black" stroke-width="2" stroke-linejoin="round"/>
<path d="M12.8328 52.8286L19.4989 35.3301L26.165 52.8286" stroke="black" stroke-width="2" stroke-linejoin="round"/>
<path d="M15.3326 46.9957H23.6653" stroke="black" stroke-width="2" stroke-linejoin="round"/>
<path d="M29.4981 52.8286V36.1633H38.664V42.8294H29.4981" stroke="black" stroke-width="2" stroke-linejoin="round"/>
<path d="M41.1638 36.1633H49.4964" stroke="black" stroke-width="2" stroke-linejoin="round"/>
<path d="M45.3301 36.1633V51.9953" stroke="black" stroke-width="2" stroke-linejoin="round"/>
<path d="M41.1638 51.9952H49.4964" stroke="black" stroke-width="2" stroke-linejoin="round"/>
</svg>
