<svg width="64" height="64" viewBox="0 0 64 64" fill="none" xmlns="http://www.w3.org/2000/svg">
<path d="M6.66666 7.99996V56C6.66666 56.7333 7.26666 57.3333 8 57.3333H56C56.7333 57.3333 57.3333 56.7333 57.3333 56V7.99996C57.3333 7.26663 56.7333 6.66663 56 6.66663H8C7.26666 6.66663 6.66666 7.26663 6.66666 7.99996ZM9.33333 9.33329H54.6667V54.6666H9.33333V9.33329Z" fill="black"/>
<path d="M50.6667 12H37.3333C36.6 12 36 12.6 36 13.3333V26.6667C36 27.4 36.6 28 37.3333 28H50.6667C51.4 28 52 27.4 52 26.6667V13.3333C52 12.6 51.4 12 50.6667 12ZM49.3333 25.3333H38.6667V14.6667H49.3333V25.3333ZM13.3333 14.6667H32C32.7333 14.6667 33.3333 14.0667 33.3333 13.3333C33.3333 12.6 32.7333 12 32 12H13.3333C12.6 12 12 12.6 12 13.3333C12 14.0667 12.6 14.6667 13.3333 14.6667ZM13.3333 18.6667H32C32.7333 18.6667 33.3333 18.0667 33.3333 17.3333C33.3333 16.6 32.7333 16 32 16H13.3333C12.6 16 12 16.6 12 17.3333C12 18.0667 12.6 18.6667 13.3333 18.6667ZM13.3333 22.6667H32C32.7333 22.6667 33.3333 22.0667 33.3333 21.3333C33.3333 20.6 32.7333 20 32 20H13.3333C12.6 20 12 20.6 12 21.3333C12 22.0667 12.6 22.6667 13.3333 22.6667ZM13.3333 26.6667H32C32.7333 26.6667 33.3333 26.0667 33.3333 25.3333C33.3333 24.6 32.7333 24 32 24H13.3333C12.6 24 12 24.6 12 25.3333C12 26.0667 12.6 26.6667 13.3333 26.6667ZM13.3333 30.6667H32C32.7333 30.6667 33.3333 30.0667 33.3333 29.3333C33.3333 28.6 32.7333 28 32 28H13.3333C12.6 28 12 28.6 12 29.3333C12 30.0667 12.6 30.6667 13.3333 30.6667ZM26.6667 36H13.3333C12.6 36 12 36.6 12 37.3333V50.6667C12 51.4 12.6 52 13.3333 52H26.6667C27.4 52 28 51.4 28 50.6667V37.3333C28 36.6 27.4 36 26.6667 36ZM25.3333 49.3333H14.6667V38.6667H25.3333V49.3333ZM50.6667 49.3333H32C31.2667 49.3333 30.6667 49.9333 30.6667 50.6667C30.6667 51.4 31.2667 52 32 52H50.6667C51.4 52 52 51.4 52 50.6667C52 49.9333 51.4 49.3333 50.6667 49.3333ZM50.6667 45.3333H32C31.2667 45.3333 30.6667 45.9333 30.6667 46.6667C30.6667 47.4 31.2667 48 32 48H50.6667C51.4 48 52 47.4 52 46.6667C52 45.9333 51.4 45.3333 50.6667 45.3333ZM50.6667 41.3333H32C31.2667 41.3333 30.6667 41.9333 30.6667 42.6667C30.6667 43.4 31.2667 44 32 44H50.6667C51.4 44 52 43.4 52 42.6667C52 41.9333 51.4 41.3333 50.6667 41.3333ZM50.6667 37.3333H32C31.2667 37.3333 30.6667 37.9333 30.6667 38.6667C30.6667 39.4 31.2667 40 32 40H50.6667C51.4 40 52 39.4 52 38.6667C52 37.9333 51.4 37.3333 50.6667 37.3333ZM50.6667 33.3333H32C31.2667 33.3333 30.6667 33.9333 30.6667 34.6667C30.6667 35.4 31.2667 36 32 36H50.6667C51.4 36 52 35.4 52 34.6667C52 33.9333 51.4 33.3333 50.6667 33.3333Z" fill="black"/>
</svg>
