<svg width="64" height="64" viewBox="0 0 64 64" fill="none" xmlns="http://www.w3.org/2000/svg">
<path d="M32 6.99994C28.5575 6.99994 25.75 9.80744 25.75 13.2499C25.75 16.4275 28.1435 19.0151 31.2188 19.4023V21.8437C31.2188 22.2527 31.591 22.6249 32 22.6249H35.125C35.7081 22.6249 36.0509 22.7877 36.2969 23.0644C36.5429 23.3411 36.6875 23.7285 36.6875 24.1386C36.6875 24.5488 36.5428 24.9848 36.2969 25.2617C36.0509 25.5384 35.7081 25.7011 35.125 25.7011H28.875C27.9013 25.7011 27.0636 26.1276 26.5312 26.7265C25.9989 27.3256 25.75 28.0688 25.75 28.8261C25.75 29.5835 25.9989 30.3756 26.5312 30.9745C27.0636 31.5735 27.9013 31.9511 28.875 31.9511H31.2188V33.4648H19.3047C19.2214 33.4679 19.1386 33.4845 19.0605 33.5136C18.9434 33.5136 18.836 33.4679 18.7188 33.4648C18.7025 33.4643 18.6862 33.4643 18.6699 33.4648C12.4855 33.4646 7.00008 39.0066 7 45.2324C6.99998 51.4583 12.4855 57.0001 18.6699 56.9999C23.3097 56.9999 27.6539 53.981 29.4121 49.6757H34.5879C36.3461 53.981 40.6903 56.9935 45.3301 56.9999C51.5145 57.0001 57 51.4583 57 45.2324C56.9999 39.0066 51.5145 33.4646 45.3301 33.4648C45.2212 33.4662 45.097 33.5089 44.9883 33.5136C44.9727 33.5142 44.9548 33.513 44.9395 33.5136C44.9232 33.5131 44.9069 33.5131 44.8906 33.5136C44.828 33.489 44.7622 33.4726 44.6953 33.4648H32.7812V31.1699C32.7812 30.7608 32.409 30.3887 32 30.3886H28.875C28.292 30.3886 27.9491 30.177 27.7031 29.9003C27.4571 29.6236 27.3125 29.2363 27.3125 28.8261C27.3125 28.416 27.4572 28.0286 27.7031 27.7519C27.9491 27.4752 28.292 27.2636 28.875 27.2636H35.125C36.0987 27.2636 36.9364 26.886 37.4688 26.287C38.0011 25.6881 38.25 24.896 38.25 24.1386C38.25 23.3813 38.0011 22.6379 37.4688 22.039C36.9364 21.4403 36.0987 21.0624 35.125 21.0624H32.7812V19.4023C35.8565 19.0151 38.25 16.4275 38.25 13.2499C38.25 9.80744 35.4425 6.99994 32 6.99994ZM32 8.56244C34.5981 8.56244 36.6875 10.652 36.6875 13.2499C36.6875 15.7804 34.699 17.8326 32.1953 17.9374C32 17.9375 32 17.9375 31.8047 17.9374C29.301 17.8326 27.3125 15.7804 27.3125 13.2499C27.3125 10.652 29.4019 8.56244 32 8.56244ZM33.8066 10.8574L31.2188 13.4453L30.1934 12.4199L29.1191 13.4941L30.6816 15.0566L31.2188 15.6425L31.7559 15.0566L34.8809 11.9316L33.8066 10.8574ZM18.6699 35.0273C18.8574 35.0273 19.0201 35.0605 19.207 35.0761C19.2903 35.073 19.3731 35.0564 19.4512 35.0273H19.5488H44.4512H44.5977C44.6603 35.0519 44.7261 35.0683 44.793 35.0761C44.9799 35.0605 45.1427 35.0288 45.3301 35.0273C50.5584 35.0271 55.4374 39.9461 55.4375 45.2324C55.4375 50.5186 50.5585 55.4376 45.3301 55.4374C41.2211 55.4374 37.181 52.5658 35.8086 48.6503C35.7076 48.3434 35.3992 48.1173 35.0762 48.1132H28.9238C28.6008 48.1173 28.2924 48.3434 28.1914 48.6503C26.819 52.5658 22.7789 55.4317 18.6699 55.4374C13.4415 55.4376 8.56248 50.5186 8.5625 45.2324C8.56256 39.9461 13.4416 35.0271 18.6699 35.0273ZM45.3789 37.6152C43.8789 37.6152 42.6445 38.8478 42.6445 40.3495C42.6445 41.8513 43.8789 43.0839 45.3789 43.0839C46.879 43.0839 48.1133 41.8513 48.1133 40.3495C48.1133 38.8478 46.879 37.6152 45.3789 37.6152ZM45.3789 39.1777C46.0283 39.1777 46.5508 39.686 46.5508 40.3495C46.5508 41.0131 46.0283 41.5214 45.3789 41.5214C44.7296 41.5214 44.207 41.0131 44.207 40.3495C44.207 39.686 44.7296 39.1777 45.3789 39.1777ZM18.084 39.5195C18.0171 39.5273 17.9513 39.5437 17.8887 39.5683C17.5482 39.6561 17.2916 39.9981 17.3027 40.3495V44.4511H13.25C13.2175 44.4491 13.1849 44.4491 13.1523 44.4511C12.7433 44.4767 12.3944 44.8721 12.4199 45.2812C12.4455 45.6903 12.8409 46.0392 13.25 46.0136H17.3027V50.1152C17.2969 50.5279 17.6712 50.9075 18.084 50.9075C18.4968 50.9075 18.8711 50.5279 18.8652 50.1152V46.0136H22.918C23.3307 46.0194 23.7103 45.6451 23.7103 45.2324C23.7103 44.8196 23.3307 44.4453 22.918 44.4511H18.8652V40.3495C18.8918 39.9245 18.5098 39.5187 18.084 39.5195ZM28.5332 42.1074C28.1241 42.1968 27.8334 42.6504 27.9229 43.0595C28.0123 43.4686 28.4659 43.7593 28.875 43.6699H30.4375C30.8502 43.6756 31.2299 43.3014 31.2299 42.8886C31.2299 42.4758 30.8502 42.1015 30.4375 42.1074C29.8117 42.1049 29.1329 42.1074 28.5332 42.1074ZM33.2207 42.1074C32.8116 42.1968 32.5209 42.6504 32.6104 43.0595C32.6998 43.4686 33.1534 43.7593 33.5625 43.6699H35.125C35.5377 43.6756 35.9174 43.3014 35.9174 42.8886C35.9174 42.4758 35.5377 42.1015 35.125 42.1074C34.4902 42.1074 33.8555 42.1074 33.2207 42.1074ZM40.5449 42.498C39.0448 42.498 37.8105 43.7306 37.8105 45.2324C37.8105 46.7341 39.0449 47.9667 40.5449 47.9667C42.045 47.9667 43.2793 46.7341 43.2793 45.2324C43.2793 43.7306 42.045 42.498 40.5449 42.498ZM50.2129 42.498C48.7128 42.498 47.4785 43.7306 47.4785 45.2324C47.4785 46.7341 48.7128 47.9667 50.2129 47.9667C51.7129 47.9667 52.9473 46.7341 52.9473 45.2324C52.9473 43.7306 51.7129 42.498 50.2129 42.498ZM40.5449 44.0605C41.1942 44.0605 41.7168 44.5688 41.7168 45.2324C41.7168 45.896 41.1943 46.4042 40.5449 46.4042C39.8956 46.4042 39.373 45.896 39.373 45.2324C39.373 44.5688 39.8956 44.0605 40.5449 44.0605ZM50.2129 44.0605C50.8622 44.0605 51.3848 44.5688 51.3848 45.2324C51.3848 45.896 50.8622 46.4042 50.2129 46.4042C49.5635 46.4042 49.041 45.896 49.041 45.2324C49.041 44.5688 49.5635 44.0605 50.2129 44.0605ZM45.3789 47.3808C43.8789 47.3808 42.6445 48.6135 42.6445 50.1152C42.6445 51.6169 43.8789 52.8495 45.3789 52.8495C46.879 52.8495 48.1133 51.6169 48.1133 50.1152C48.1133 48.6135 46.879 47.3808 45.3789 47.3808ZM45.3789 48.9433C46.0283 48.9433 46.5508 49.4516 46.5508 50.1152C46.5508 50.7788 46.0283 51.287 45.3789 51.287C44.7296 51.287 44.207 50.7788 44.207 50.1152C44.207 49.4516 44.7296 48.9433 45.3789 48.9433Z" fill="black"/>
</svg>
