<svg width="24" height="24" viewBox="0 0 24 24" fill="none" xmlns="http://www.w3.org/2000/svg">
<path d="M9.42858 16.2856C9.42858 16.6428 9.37278 17.0088 9.26117 17.3838C9.14956 17.7588 8.9576 18.0981 8.68528 18.4017C8.41296 18.7053 8.08929 18.857 7.71429 18.857C7.33929 18.857 7.01563 18.7053 6.74331 18.4017C6.47099 18.0981 6.27903 17.7588 6.16742 17.3838C6.05581 17.0088 6.00001 16.6428 6.00001 16.2856C6.00001 15.9285 6.05581 15.5624 6.16742 15.1874C6.27903 14.8124 6.47099 14.4731 6.74331 14.1695C7.01563 13.866 7.33929 13.7142 7.71429 13.7142C8.08929 13.7142 8.41296 13.866 8.68528 14.1695C8.9576 14.4731 9.14956 14.8124 9.26117 15.1874C9.37278 15.5624 9.42858 15.9285 9.42858 16.2856ZM18 16.2856C18 16.6428 17.9442 17.0088 17.8326 17.3838C17.721 17.7588 17.529 18.0981 17.2567 18.4017C16.9844 18.7053 16.6607 18.857 16.2857 18.857C15.9107 18.857 15.5871 18.7053 15.3147 18.4017C15.0424 18.0981 14.8505 17.7588 14.7388 17.3838C14.6272 17.0088 14.5714 16.6428 14.5714 16.2856C14.5714 15.9285 14.6272 15.5624 14.7388 15.1874C14.8505 14.8124 15.0424 14.4731 15.3147 14.1695C15.5871 13.866 15.9107 13.7142 16.2857 13.7142C16.6607 13.7142 16.9844 13.866 17.2567 14.1695C17.529 14.4731 17.721 14.8124 17.8326 15.1874C17.9442 15.5624 18 15.9285 18 16.2856ZM20.1429 16.2856C20.1429 15.2142 19.8348 14.3035 19.2188 13.5535C18.6027 12.8035 17.7679 12.4285 16.7143 12.4285C16.3482 12.4285 15.4777 12.5222 14.1027 12.7097C13.4688 12.8079 12.7679 12.857 12 12.857C11.2322 12.857 10.5313 12.8079 9.89733 12.7097C8.54019 12.5222 7.66965 12.4285 7.28572 12.4285C6.23215 12.4285 5.39733 12.8035 4.78126 13.5535C4.16519 14.3035 3.85715 15.2142 3.85715 16.2856C3.85715 17.0713 4.00001 17.7566 4.28572 18.3414C4.57144 18.9262 4.93304 19.3861 5.37054 19.7209C5.80804 20.0557 6.35269 20.3236 7.00447 20.5244C7.65626 20.7253 8.28126 20.857 8.87947 20.9195C9.47769 20.982 10.1429 21.0133 10.875 21.0133H13.125C13.8572 21.0133 14.5223 20.982 15.1205 20.9195C15.7188 20.857 16.3438 20.7253 16.9955 20.5244C17.6473 20.3236 18.192 20.0557 18.6295 19.7209C19.067 19.3861 19.4286 18.9262 19.7143 18.3414C20 17.7566 20.1429 17.0713 20.1429 16.2856ZM23.1429 13.9285C23.1429 15.7767 22.8705 17.2544 22.3259 18.3615C21.9866 19.049 21.5156 19.6428 20.913 20.1428C20.3103 20.6428 19.6808 21.0267 19.0246 21.2945C18.3683 21.5624 17.6094 21.7744 16.7478 21.9307C15.8862 22.0869 15.1205 22.1852 14.4509 22.2253C13.7813 22.2655 13.0357 22.2856 12.2143 22.2856C11.5179 22.2856 10.8839 22.2722 10.3125 22.2454C9.74108 22.2186 9.0826 22.1628 8.33706 22.078C7.59153 21.9932 6.91072 21.8593 6.29465 21.6762C5.67858 21.4932 5.06697 21.2633 4.45983 20.9865C3.85269 20.7097 3.31251 20.3481 2.83929 19.9017C2.36608 19.4553 1.98215 18.9419 1.68751 18.3615C1.13394 17.2633 0.857152 15.7856 0.857152 13.9285C0.857152 11.8124 1.46429 10.0445 2.67858 8.6249C2.43751 7.89275 2.31697 7.13382 2.31697 6.34811C2.31697 5.3124 2.54465 4.33918 3.00001 3.42847C3.96429 3.42847 4.81251 3.60481 5.54465 3.95748C6.27679 4.31016 7.12054 4.8615 8.0759 5.6115C9.3884 5.299 10.7679 5.14275 12.2143 5.14275C13.5357 5.14275 14.7857 5.28561 15.9643 5.57132C16.9018 4.83918 17.7366 4.299 18.4688 3.95079C19.2009 3.60257 20.0447 3.42847 21 3.42847C21.4554 4.33918 21.683 5.3124 21.683 6.34811C21.683 7.1249 21.5625 7.8749 21.3214 8.59811C22.5357 10.0267 23.1429 11.8035 23.1429 13.9285Z" fill="black"/>
</svg>
