<svg width="25" height="24" viewBox="0 0 25 24" fill="none" xmlns="http://www.w3.org/2000/svg">
<g clip-path="url(#clip0)">
<path fill-rule="evenodd" clip-rule="evenodd" d="M12.6947 0C6.15216 0 0.83139 5.3816 0.83139 11.9968C0.83139 18.6112 6.15295 23.9904 12.6947 23.9904C19.2365 23.9904 24.5628 18.6104 24.5628 11.9968C24.5628 5.3816 19.2373 0 12.6947 0ZM12.6947 23.1296C6.6222 23.1296 1.68283 18.1376 1.68283 11.9968C1.68283 5.856 6.6222 0.860791 12.6947 0.860791C18.7688 0.860791 23.7113 5.856 23.7113 11.9968C23.7113 18.1376 18.7688 23.1296 12.6947 23.1296ZM18.044 10.8608L10.6159 6.69199C9.60384 6.12319 8.63449 6.7264 8.63449 7.872V16.1192C8.63449 16.9616 9.11323 17.5288 9.82461 17.5288C10.081 17.5288 10.3485 17.452 10.6175 17.3008L18.044 13.1304C18.5354 12.8552 18.8186 12.4416 18.8186 11.9976C18.8186 11.5536 18.5354 11.1392 18.044 10.8608ZM17.6301 12.3768L10.2052 16.5472C10.0644 16.6256 9.93461 16.6672 9.82541 16.6672C9.53184 16.6672 9.48672 16.3248 9.48672 16.1184V7.872C9.48672 7.6672 9.53184 7.3248 9.82541 7.3248C9.9354 7.3248 10.0652 7.3672 10.2052 7.4448L17.6301 11.6136C17.8374 11.7304 17.9672 11.8776 17.9672 11.9968C17.9664 12.1144 17.8366 12.2608 17.6301 12.3768Z" fill="#A161BF"/>
</g>
<defs>
<clipPath id="clip0">
<rect width="24.5306" height="24" fill="white" transform="translate(0.43573)"/>
</clipPath>
</defs>
</svg>
